<mxfile host="app.diagrams.net" modified="2023-01-26T18:59:22.301Z" agent="5.0 (Windows NT 10.0; Win64; x64) AppleWebKit/537.36 (KHTML, like Gecko) Chrome/109.0.0.0 Safari/537.36" etag="5yZGNsPkzbJgEJeX8p6S" version="20.8.11" type="github">
  <diagram id="kgpKYQtTHZ0yAKxKKP6v" name="Page-1">
    <mxGraphModel dx="1035" dy="532" grid="1" gridSize="10" guides="1" tooltips="1" connect="1" arrows="1" fold="1" page="1" pageScale="1" pageWidth="850" pageHeight="1100" math="0" shadow="0">
      <root>
        <mxCell id="0" />
        <mxCell id="1" parent="0" />
        <mxCell id="3nuBFxr9cyL0pnOWT2aG-5" value="Système" style="shape=umlLifeline;perimeter=lifelinePerimeter;container=1;collapsible=0;recursiveResize=0;rounded=0;shadow=0;strokeWidth=1;size=30;" parent="1" vertex="1">
          <mxGeometry x="430" y="80" width="100" height="350" as="geometry" />
        </mxCell>
        <mxCell id="3nuBFxr9cyL0pnOWT2aG-6" value="" style="points=[];perimeter=orthogonalPerimeter;rounded=0;shadow=0;strokeWidth=1;" parent="3nuBFxr9cyL0pnOWT2aG-5" vertex="1">
          <mxGeometry x="45" y="80" width="10" height="60" as="geometry" />
        </mxCell>
        <mxCell id="TaP7yl51FJC6QyZu4GvL-30" value="" style="html=1;points=[];perimeter=orthogonalPerimeter;fontSize=10;" vertex="1" parent="3nuBFxr9cyL0pnOWT2aG-5">
          <mxGeometry x="50" y="190" width="10" height="140" as="geometry" />
        </mxCell>
        <mxCell id="TaP7yl51FJC6QyZu4GvL-31" value="Vérification" style="edgeStyle=orthogonalEdgeStyle;html=1;align=left;spacingLeft=2;endArrow=block;rounded=0;entryX=1;entryY=0;fontSize=10;" edge="1" target="TaP7yl51FJC6QyZu4GvL-30" parent="3nuBFxr9cyL0pnOWT2aG-5">
          <mxGeometry relative="1" as="geometry">
            <mxPoint x="55" y="170" as="sourcePoint" />
            <Array as="points">
              <mxPoint x="85" y="170" />
            </Array>
          </mxGeometry>
        </mxCell>
        <mxCell id="TaP7yl51FJC6QyZu4GvL-13" value="" style="endArrow=none;html=1;rounded=0;dashed=1;dashPattern=1 2;" edge="1" parent="3nuBFxr9cyL0pnOWT2aG-5">
          <mxGeometry relative="1" as="geometry">
            <mxPoint x="-170" y="280" as="sourcePoint" />
            <mxPoint x="-170" y="280" as="targetPoint" />
            <Array as="points">
              <mxPoint x="-290" y="280" />
              <mxPoint x="80" y="280" />
            </Array>
          </mxGeometry>
        </mxCell>
        <mxCell id="6mwQGDtURPr-O4ymDeJ_-5" value="" style="shape=umlLifeline;participant=umlActor;perimeter=lifelinePerimeter;whiteSpace=wrap;html=1;container=1;collapsible=0;recursiveResize=0;verticalAlign=top;spacingTop=36;outlineConnect=0;" parent="1" vertex="1">
          <mxGeometry x="160" y="80" width="20" height="350" as="geometry" />
        </mxCell>
        <mxCell id="6mwQGDtURPr-O4ymDeJ_-4" value="" style="html=1;points=[];perimeter=orthogonalPerimeter;" parent="6mwQGDtURPr-O4ymDeJ_-5" vertex="1">
          <mxGeometry x="5" y="70" width="10" height="260" as="geometry" />
        </mxCell>
        <UserObject label="Demande de création de profil" tooltip="" id="6mwQGDtURPr-O4ymDeJ_-10">
          <mxCell style="html=1;verticalAlign=bottom;endArrow=block;rounded=0;" parent="6mwQGDtURPr-O4ymDeJ_-5" target="3nuBFxr9cyL0pnOWT2aG-5" edge="1">
            <mxGeometry x="0.0017" y="10" width="80" relative="1" as="geometry">
              <mxPoint x="20" y="90" as="sourcePoint" />
              <mxPoint x="90" y="90" as="targetPoint" />
              <mxPoint x="-1" as="offset" />
            </mxGeometry>
          </mxCell>
        </UserObject>
        <mxCell id="TaP7yl51FJC6QyZu4GvL-32" value="&lt;font style=&quot;font-size: 12px;&quot;&gt;Ajout avec succès&lt;/font&gt;" style="html=1;verticalAlign=bottom;endArrow=block;rounded=0;fontSize=10;entryX=1.412;entryY=0.694;entryDx=0;entryDy=0;entryPerimeter=0;exitX=0.5;exitY=0.692;exitDx=0;exitDy=0;exitPerimeter=0;" edge="1" parent="6mwQGDtURPr-O4ymDeJ_-5" source="6mwQGDtURPr-O4ymDeJ_-4" target="6mwQGDtURPr-O4ymDeJ_-4">
          <mxGeometry x="-0.4434" y="10" width="80" relative="1" as="geometry">
            <mxPoint x="20" y="250" as="sourcePoint" />
            <mxPoint x="480" y="230" as="targetPoint" />
            <Array as="points">
              <mxPoint x="320" y="250" />
            </Array>
            <mxPoint x="-1" as="offset" />
          </mxGeometry>
        </mxCell>
        <mxCell id="6mwQGDtURPr-O4ymDeJ_-16" value="Formulaire de création de profil" style="html=1;verticalAlign=bottom;endArrow=block;rounded=0;" parent="1" source="6mwQGDtURPr-O4ymDeJ_-4" target="3nuBFxr9cyL0pnOWT2aG-5" edge="1">
          <mxGeometry x="-0.0476" y="40" width="80" relative="1" as="geometry">
            <mxPoint x="170" y="210" as="sourcePoint" />
            <mxPoint x="250" y="210" as="targetPoint" />
            <Array as="points">
              <mxPoint x="340" y="250" />
              <mxPoint x="380" y="250" />
              <mxPoint x="430" y="250" />
            </Array>
            <mxPoint as="offset" />
          </mxGeometry>
        </mxCell>
        <mxCell id="6mwQGDtURPr-O4ymDeJ_-18" value="Remplissage du formulaiire" style="html=1;verticalAlign=bottom;endArrow=block;rounded=0;" parent="1" source="3nuBFxr9cyL0pnOWT2aG-5" target="6mwQGDtURPr-O4ymDeJ_-5" edge="1">
          <mxGeometry x="-0.0355" y="40" width="80" relative="1" as="geometry">
            <mxPoint x="280" y="220" as="sourcePoint" />
            <mxPoint x="360" y="220" as="targetPoint" />
            <Array as="points">
              <mxPoint x="240" y="210" />
            </Array>
            <mxPoint as="offset" />
          </mxGeometry>
        </mxCell>
        <mxCell id="TaP7yl51FJC6QyZu4GvL-2" value="Error" style="html=1;verticalAlign=bottom;endArrow=open;dashed=1;endSize=8;rounded=0;" edge="1" parent="1" source="3nuBFxr9cyL0pnOWT2aG-5" target="6mwQGDtURPr-O4ymDeJ_-4">
          <mxGeometry relative="1" as="geometry">
            <mxPoint x="460" y="240" as="sourcePoint" />
            <mxPoint x="180" y="350" as="targetPoint" />
            <Array as="points">
              <mxPoint x="420" y="400" />
              <mxPoint x="400" y="400" />
              <mxPoint x="340" y="400" />
              <mxPoint x="290" y="400" />
              <mxPoint x="190" y="400" />
            </Array>
          </mxGeometry>
        </mxCell>
        <mxCell id="TaP7yl51FJC6QyZu4GvL-8" value="Si acceptée" style="text;align=center;fontStyle=1;verticalAlign=middle;spacingLeft=3;spacingRight=3;strokeColor=none;rotatable=0;points=[[0,0.5],[1,0.5]];portConstraint=eastwest;fontSize=10;" vertex="1" parent="1">
          <mxGeometry x="295" y="280" width="70" height="26" as="geometry" />
        </mxCell>
        <mxCell id="TaP7yl51FJC6QyZu4GvL-15" value="[Else]" style="text;align=center;fontStyle=1;verticalAlign=middle;spacingLeft=3;spacingRight=3;strokeColor=none;rotatable=0;points=[[0,0.5],[1,0.5]];portConstraint=eastwest;fontSize=10;" vertex="1" parent="1">
          <mxGeometry x="290" y="360" width="80" height="26" as="geometry" />
        </mxCell>
        <mxCell id="TaP7yl51FJC6QyZu4GvL-7" value="Alt" style="shape=umlFrame;whiteSpace=wrap;html=1;" vertex="1" parent="1">
          <mxGeometry x="150" y="280" width="355" height="144" as="geometry" />
        </mxCell>
        <mxCell id="TaP7yl51FJC6QyZu4GvL-33" value="Système" style="shape=umlLifeline;perimeter=lifelinePerimeter;container=1;collapsible=0;recursiveResize=0;rounded=0;shadow=0;strokeWidth=1;size=30;" vertex="1" parent="1">
          <mxGeometry x="417.5" y="520" width="100" height="350" as="geometry" />
        </mxCell>
        <mxCell id="TaP7yl51FJC6QyZu4GvL-34" value="" style="points=[];perimeter=orthogonalPerimeter;rounded=0;shadow=0;strokeWidth=1;" vertex="1" parent="TaP7yl51FJC6QyZu4GvL-33">
          <mxGeometry x="45" y="80" width="10" height="60" as="geometry" />
        </mxCell>
        <mxCell id="TaP7yl51FJC6QyZu4GvL-35" value="" style="html=1;points=[];perimeter=orthogonalPerimeter;fontSize=10;" vertex="1" parent="TaP7yl51FJC6QyZu4GvL-33">
          <mxGeometry x="50" y="190" width="10" height="140" as="geometry" />
        </mxCell>
        <mxCell id="TaP7yl51FJC6QyZu4GvL-36" value="Vérification" style="edgeStyle=orthogonalEdgeStyle;html=1;align=left;spacingLeft=2;endArrow=block;rounded=0;entryX=1;entryY=0;fontSize=10;" edge="1" parent="TaP7yl51FJC6QyZu4GvL-33" target="TaP7yl51FJC6QyZu4GvL-35">
          <mxGeometry relative="1" as="geometry">
            <mxPoint x="55" y="170" as="sourcePoint" />
            <Array as="points">
              <mxPoint x="85" y="170" />
            </Array>
          </mxGeometry>
        </mxCell>
        <mxCell id="TaP7yl51FJC6QyZu4GvL-37" value="" style="endArrow=none;html=1;rounded=0;dashed=1;dashPattern=1 2;" edge="1" parent="TaP7yl51FJC6QyZu4GvL-33">
          <mxGeometry relative="1" as="geometry">
            <mxPoint x="-170" y="280" as="sourcePoint" />
            <mxPoint x="-170" y="280" as="targetPoint" />
            <Array as="points">
              <mxPoint x="-290" y="280" />
              <mxPoint x="80" y="280" />
            </Array>
          </mxGeometry>
        </mxCell>
        <mxCell id="TaP7yl51FJC6QyZu4GvL-38" value="" style="shape=umlLifeline;participant=umlActor;perimeter=lifelinePerimeter;whiteSpace=wrap;html=1;container=1;collapsible=0;recursiveResize=0;verticalAlign=top;spacingTop=36;outlineConnect=0;" vertex="1" parent="1">
          <mxGeometry x="147.5" y="520" width="20" height="350" as="geometry" />
        </mxCell>
        <mxCell id="TaP7yl51FJC6QyZu4GvL-39" value="" style="html=1;points=[];perimeter=orthogonalPerimeter;" vertex="1" parent="TaP7yl51FJC6QyZu4GvL-38">
          <mxGeometry x="5" y="70" width="10" height="260" as="geometry" />
        </mxCell>
        <UserObject label="Demande d&#39;ajout d&#39;une publlication" tooltip="" id="TaP7yl51FJC6QyZu4GvL-40">
          <mxCell style="html=1;verticalAlign=bottom;endArrow=block;rounded=0;" edge="1" parent="TaP7yl51FJC6QyZu4GvL-38" target="TaP7yl51FJC6QyZu4GvL-33">
            <mxGeometry x="-0.0651" y="10" width="80" relative="1" as="geometry">
              <mxPoint x="20" y="90" as="sourcePoint" />
              <mxPoint x="90" y="90" as="targetPoint" />
              <mxPoint as="offset" />
            </mxGeometry>
          </mxCell>
        </UserObject>
        <mxCell id="TaP7yl51FJC6QyZu4GvL-41" value="&lt;font style=&quot;font-size: 12px;&quot;&gt;Ajout avec succès&lt;/font&gt;" style="html=1;verticalAlign=bottom;endArrow=block;rounded=0;fontSize=10;entryX=1.412;entryY=0.694;entryDx=0;entryDy=0;entryPerimeter=0;exitX=0.5;exitY=0.692;exitDx=0;exitDy=0;exitPerimeter=0;" edge="1" parent="TaP7yl51FJC6QyZu4GvL-38" source="TaP7yl51FJC6QyZu4GvL-39" target="TaP7yl51FJC6QyZu4GvL-39">
          <mxGeometry x="-0.4434" y="10" width="80" relative="1" as="geometry">
            <mxPoint x="20" y="250" as="sourcePoint" />
            <mxPoint x="480" y="230" as="targetPoint" />
            <Array as="points">
              <mxPoint x="320" y="250" />
            </Array>
            <mxPoint x="-1" as="offset" />
          </mxGeometry>
        </mxCell>
        <mxCell id="TaP7yl51FJC6QyZu4GvL-42" value="Formulaire d&#39;ajout" style="html=1;verticalAlign=bottom;endArrow=block;rounded=0;" edge="1" parent="1" source="TaP7yl51FJC6QyZu4GvL-39" target="TaP7yl51FJC6QyZu4GvL-33">
          <mxGeometry x="-0.0476" y="40" width="80" relative="1" as="geometry">
            <mxPoint x="157.5" y="650" as="sourcePoint" />
            <mxPoint x="237.5" y="650" as="targetPoint" />
            <Array as="points">
              <mxPoint x="327.5" y="690" />
              <mxPoint x="367.5" y="690" />
              <mxPoint x="417.5" y="690" />
            </Array>
            <mxPoint as="offset" />
          </mxGeometry>
        </mxCell>
        <mxCell id="TaP7yl51FJC6QyZu4GvL-43" value="Remplissage du formulaiire" style="html=1;verticalAlign=bottom;endArrow=block;rounded=0;" edge="1" parent="1" source="TaP7yl51FJC6QyZu4GvL-33" target="TaP7yl51FJC6QyZu4GvL-38">
          <mxGeometry x="-0.0355" y="40" width="80" relative="1" as="geometry">
            <mxPoint x="267.5" y="660" as="sourcePoint" />
            <mxPoint x="347.5" y="660" as="targetPoint" />
            <Array as="points">
              <mxPoint x="227.5" y="650" />
            </Array>
            <mxPoint as="offset" />
          </mxGeometry>
        </mxCell>
        <mxCell id="TaP7yl51FJC6QyZu4GvL-44" value="Error" style="html=1;verticalAlign=bottom;endArrow=open;dashed=1;endSize=8;rounded=0;" edge="1" parent="1" source="TaP7yl51FJC6QyZu4GvL-33" target="TaP7yl51FJC6QyZu4GvL-39">
          <mxGeometry relative="1" as="geometry">
            <mxPoint x="447.5" y="680" as="sourcePoint" />
            <mxPoint x="167.5" y="790" as="targetPoint" />
            <Array as="points">
              <mxPoint x="407.5" y="840" />
              <mxPoint x="387.5" y="840" />
              <mxPoint x="327.5" y="840" />
              <mxPoint x="277.5" y="840" />
              <mxPoint x="177.5" y="840" />
            </Array>
          </mxGeometry>
        </mxCell>
        <mxCell id="TaP7yl51FJC6QyZu4GvL-45" value="Si acceptée" style="text;align=center;fontStyle=1;verticalAlign=middle;spacingLeft=3;spacingRight=3;strokeColor=none;rotatable=0;points=[[0,0.5],[1,0.5]];portConstraint=eastwest;fontSize=10;" vertex="1" parent="1">
          <mxGeometry x="282.5" y="720" width="70" height="26" as="geometry" />
        </mxCell>
        <mxCell id="TaP7yl51FJC6QyZu4GvL-46" value="[Else]" style="text;align=center;fontStyle=1;verticalAlign=middle;spacingLeft=3;spacingRight=3;strokeColor=none;rotatable=0;points=[[0,0.5],[1,0.5]];portConstraint=eastwest;fontSize=10;" vertex="1" parent="1">
          <mxGeometry x="277.5" y="800" width="80" height="26" as="geometry" />
        </mxCell>
        <mxCell id="TaP7yl51FJC6QyZu4GvL-47" value="Alt" style="shape=umlFrame;whiteSpace=wrap;html=1;" vertex="1" parent="1">
          <mxGeometry x="137.5" y="720" width="355" height="144" as="geometry" />
        </mxCell>
        <mxCell id="TaP7yl51FJC6QyZu4GvL-48" value="Utilisateur" style="text;align=center;fontStyle=1;verticalAlign=middle;spacingLeft=3;spacingRight=3;strokeColor=none;rotatable=0;points=[[0,0.5],[1,0.5]];portConstraint=eastwest;fontSize=12;" vertex="1" parent="1">
          <mxGeometry x="130" y="120" width="80" height="26" as="geometry" />
        </mxCell>
        <mxCell id="TaP7yl51FJC6QyZu4GvL-49" value="Utilisateur" style="text;align=center;fontStyle=1;verticalAlign=middle;spacingLeft=3;spacingRight=3;strokeColor=none;rotatable=0;points=[[0,0.5],[1,0.5]];portConstraint=eastwest;fontSize=12;" vertex="1" parent="1">
          <mxGeometry x="117.5" y="560" width="80" height="26" as="geometry" />
        </mxCell>
        <mxCell id="TaP7yl51FJC6QyZu4GvL-50" value="Diagramme de séquence:Créer un profil" style="text;align=center;fontStyle=1;verticalAlign=middle;spacingLeft=3;spacingRight=3;strokeColor=none;rotatable=0;points=[[0,0.5],[1,0.5]];portConstraint=eastwest;fontSize=12;" vertex="1" parent="1">
          <mxGeometry x="230" y="20" width="100" height="30" as="geometry" />
        </mxCell>
        <mxCell id="TaP7yl51FJC6QyZu4GvL-52" value="Diagramme de séquence:Faire une publication" style="text;align=center;fontStyle=1;verticalAlign=middle;spacingLeft=3;spacingRight=3;strokeColor=none;rotatable=0;points=[[0,0.5],[1,0.5]];portConstraint=eastwest;fontSize=12;" vertex="1" parent="1">
          <mxGeometry x="257.5" y="480" width="100" height="30" as="geometry" />
        </mxCell>
      </root>
    </mxGraphModel>
  </diagram>
</mxfile>
